<?xml version="1.0" standalone="no"?>
<!DOCTYPE svg PUBLIC "-//W3C//DTD SVG 20010904//EN"
 "http://www.w3.org/TR/2001/REC-SVG-20010904/DTD/svg10.dtd">
<svg version="1.0" xmlns="http://www.w3.org/2000/svg"
 width="320.000000pt" height="320.000000pt" viewBox="0 0 320.000000 320.000000"
 preserveAspectRatio="xMidYMid meet">
<metadata>
Created by potrace 1.11, written by Peter Selinger 2001-2013
</metadata>
<g transform="translate(0.000000,320.000000) scale(0.100000,-0.100000)"
fill="#000000" stroke="none">
<path d="M1009 3196 c-2 -2 -53 -7 -114 -10 -107 -6 -143 -10 -215 -22 -19 -4
-48 -8 -65 -11 -60 -9 -202 -62 -260 -97 -194 -115 -280 -275 -329 -606 -21
-142 -31 -1320 -13 -1556 31 -411 115 -603 325 -741 83 -54 223 -101 353 -118
24 -3 60 -8 79 -10 123 -16 270 -20 810 -20 616 0 807 6 930 30 14 3 43 8 64
11 70 10 217 63 276 99 74 45 160 131 204 203 38 63 91 210 101 282 4 25 10
65 15 90 4 25 8 52 8 60 0 8 4 60 9 115 4 55 8 372 8 705 0 690 -5 804 -45
992 -78 362 -290 537 -710 583 -30 3 -71 8 -90 11 -37 6 -1335 15 -1341 10z"/>
</g>
</svg>
